# Blender v2.82 (sub 7) OBJ File: ''
# www.blender.org
mtllib T-shaped-raw.mtl
o Cube.004
v 0.070000 0.025000 -0.075000
v 0.070000 -0.025000 -0.075000
v 0.090000 0.025000 -0.075000
v 0.090000 -0.025000 -0.075000
v 0.070000 0.025000 0.025000
v 0.070000 -0.025000 0.025000
v 0.090000 0.025000 0.025000
v 0.090000 -0.025000 0.025000
v 0.050000 0.025000 0.100000
v 0.050000 -0.025000 0.100000
v 0.050000 0.025000 0.120000
v 0.050000 -0.025000 0.120000
v -0.050000 0.025000 0.100000
v -0.050000 -0.025000 0.100000
v -0.050000 0.025000 0.120000
v -0.050000 -0.025000 0.120000
v -0.025000 0.025000 0.000000
v -0.025000 -0.025000 0.000000
v 0.025000 0.025000 0.000000
v 0.025000 -0.025000 0.000000
v -0.025000 0.025000 0.100000
v -0.025000 -0.025000 0.100000
v 0.025000 0.025000 0.100000
v 0.025000 -0.025000 0.100000
v 0.070000 0.025000 -0.050000
v 0.070000 -0.025000 -0.050000
v 0.070000 0.025000 0.000000
v 0.070000 -0.025000 0.000000
v -0.070000 0.025000 -0.050000
v -0.070000 -0.025000 -0.050000
v -0.070000 0.025000 0.000000
v -0.070000 -0.025000 0.000000
v 0.025000 0.008929 0.000000
v -0.025000 -0.008929 0.000000
v 0.025000 -0.025000 0.000000
v -0.025000 0.025000 0.000000
v 0.025000 0.008929 0.000000
v -0.025000 -0.008929 0.000000
v 0.025000 -0.012500 0.100000
v -0.025000 0.012500 0.100000
v 0.025000 0.025000 0.100000
v -0.025000 0.012500 0.100000
v 0.025000 -0.012500 0.100000
v -0.025000 -0.025000 0.100000
v 0.070000 -0.012500 -0.050000
v 0.070000 0.012500 0.000000
v 0.070000 -0.025000 0.000000
v 0.070000 -0.012500 -0.050000
v 0.070000 0.025000 -0.050000
v 0.070000 0.012500 0.000000
v -0.070000 0.012500 -0.050000
v -0.070000 -0.012500 0.000000
v -0.070000 -0.012500 0.000000
v -0.070000 0.012500 -0.050000
v -0.090000 0.025000 -0.075000
v -0.090000 -0.025000 -0.075000
v -0.070000 0.025000 -0.075000
v -0.070000 -0.025000 -0.075000
v -0.090000 0.025000 0.025000
v -0.090000 -0.025000 0.025000
v -0.070000 0.025000 0.025000
v -0.070000 -0.025000 0.025000
v -0.070000 -0.025000 -0.050000
v -0.070000 0.025000 0.000000
vt 0.625000 0.500000
vt 0.687500 0.500000
vt 0.812500 0.500000
vt 0.875000 0.500000
vt 0.875000 0.750000
vt 0.625000 0.750000
vt 0.375000 0.750000
vt 0.625000 1.000000
vt 0.375000 1.000000
vt 0.375000 0.000000
vt 0.625000 0.000000
vt 0.625000 0.250000
vt 0.375000 0.250000
vt 0.125000 0.500000
vt 0.187500 0.500000
vt 0.312500 0.500000
vt 0.375000 0.500000
vt 0.125000 0.750000
vt 0.625000 0.312500
vt 0.625000 0.437500
vt 0.437500 0.437500
vt 0.375000 0.437500
vt 0.375000 0.312500
vt 0.625000 0.500000
vt 0.687500 0.500000
vt 0.812500 0.500000
vt 0.875000 0.500000
vt 0.875000 0.750000
vt 0.625000 0.750000
vt 0.375000 0.750000
vt 0.625000 1.000000
vt 0.375000 1.000000
vt 0.375000 0.000000
vt 0.625000 0.000000
vt 0.625000 0.250000
vt 0.375000 0.250000
vt 0.125000 0.500000
vt 0.187500 0.500000
vt 0.312500 0.500000
vt 0.375000 0.500000
vt 0.125000 0.750000
vt 0.625000 0.312500
vt 0.625000 0.437500
vt 0.437500 0.437500
vt 0.375000 0.437500
vt 0.375000 0.312500
vt 0.625000 0.500000
vt 0.875000 0.500000
vt 0.875000 0.750000
vt 0.625000 0.750000
vt 0.375000 0.750000
vt 0.544643 0.750000
vt 0.625000 1.000000
vt 0.437500 1.000000
vt 0.375000 1.000000
vt 0.375000 0.000000
vt 0.437500 0.000000
vt 0.625000 0.000000
vt 0.625000 0.250000
vt 0.562500 0.250000
vt 0.375000 0.250000
vt 0.125000 0.500000
vt 0.375000 0.500000
vt 0.125000 0.750000
vt 0.455357 0.500000
vt 0.625000 0.500000
vt 0.875000 0.500000
vt 0.875000 0.750000
vt 0.794643 0.750000
vt 0.705357 0.750000
vt 0.625000 0.750000
vt 0.375000 0.750000
vt 0.562500 0.750000
vt 0.625000 0.830357
vt 0.625000 0.919643
vt 0.455357 0.919643
vt 0.375000 0.919643
vt 0.375000 0.830357
vt 0.125000 0.500000
vt 0.375000 0.500000
vt 0.294643 0.750000
vt 0.205357 0.750000
vt 0.125000 0.750000
vt 0.437500 0.500000
vt 0.375000 0.250000
vt 0.562500 0.250000
vt 0.625000 0.250000
vt 0.375000 0.830357
vt 0.544643 0.830357
vt 0.625000 0.919643
vt 0.625000 1.000000
vt 0.437500 1.000000
vt 0.375000 1.000000
vt 0.375000 0.312500
vt 0.562500 0.312500
vt 0.625000 0.437500
vt 0.375000 0.312500
vt 0.562500 0.312500
vt 0.625000 0.437500
vt 0.625000 0.500000
vt 0.875000 0.500000
vt 0.875000 0.750000
vt 0.812500 0.750000
vt 0.687500 0.750000
vt 0.625000 0.750000
vt 0.375000 0.750000
vt 0.625000 0.812500
vt 0.625000 0.937500
vt 0.437500 0.937500
vt 0.375000 0.937500
vt 0.375000 0.812500
vt 0.375000 0.000000
vt 0.625000 0.000000
vt 0.625000 0.250000
vt 0.375000 0.250000
vt 0.125000 0.500000
vt 0.375000 0.500000
vt 0.312500 0.750000
vt 0.187500 0.750000
vt 0.125000 0.750000
vt 0.375000 0.812500
vt 0.562500 0.812500
vt 0.625000 0.937500
vt 0.625000 1.000000
vt 0.375000 1.000000
vn 0.0000 1.0000 -0.0000
vn 1.0000 0.0000 0.0000
vn 0.0000 0.0000 1.0000
vn 0.0000 -1.0000 -0.0000
vn 0.0000 0.0000 -1.0000
vn -1.0000 0.0000 0.0000
usemtl Material
s off
f 1/1/1 49/2/1 27/3/1 5/4/1 7/5/1 3/6/1
f 4/7/2 3/6/2 7/8/2 8/9/2
f 8/10/3 7/11/3 5/12/3 6/13/3
f 6/14/4 47/15/4 26/16/4 2/17/4 4/7/4 8/18/4
f 2/17/5 1/1/5 3/6/5 4/7/5
f 6/13/6 5/12/6 27/19/6 25/20/6 45/21/6 26/22/6 47/23/6
f 9/24/1 41/25/1 21/26/1 13/27/1 15/28/1 11/29/1
f 12/30/3 11/29/3 15/31/3 16/32/3
f 16/33/6 15/34/6 13/35/6 14/36/6
f 14/37/4 44/38/4 24/39/4 10/40/4 12/30/4 16/41/4
f 10/40/2 9/24/2 11/29/2 12/30/2
f 14/36/5 13/35/5 21/42/5 23/43/5 39/44/5 24/45/5 44/46/5
f 17/47/1 21/48/1 23/49/1 19/50/1
f 20/51/2 37/52/2 19/50/2 23/53/2 43/54/2 24/55/2
f 24/56/3 43/57/3 23/58/3 21/59/3 42/60/3 22/61/3
f 22/62/4 18/63/4 20/51/4 24/64/4
f 18/63/5 38/65/5 17/47/5 19/50/5 37/52/5 20/51/5
f 22/61/6 42/60/6 21/59/6 17/47/6 38/65/6 18/63/6
f 25/66/1 29/67/1 31/68/1 36/69/1 19/70/1 27/71/1
f 28/72/3 50/73/3 27/71/3 19/74/3 17/75/3 34/76/3 18/77/3 35/78/3
f 30/79/4 26/80/4 28/72/4 35/81/4 18/82/4 32/83/4
f 26/80/2 48/84/2 25/66/2 27/71/2 50/73/2 28/72/2
f 30/85/5 54/86/5 29/87/5 25/66/5 48/84/5 26/80/5
f 18/77/3 20/88/3 33/89/3 19/74/3 36/90/3 31/91/3 53/92/3 32/93/3
f 24/45/5 22/94/5 40/95/5 21/42/5 41/96/5 9/24/5 10/40/5
f 26/22/6 28/97/6 46/98/6 27/19/6 49/99/6 1/1/6 2/17/6
f 55/100/1 59/101/1 61/102/1 64/103/1 29/104/1 57/105/1
f 58/106/2 57/105/2 29/107/2 31/108/2 53/109/2 32/110/2 63/111/2
f 62/112/3 61/113/3 59/114/3 60/115/3
f 60/116/4 56/117/4 58/106/4 63/118/4 32/119/4 62/120/4
f 56/117/5 55/100/5 57/105/5 58/106/5
f 60/115/6 59/114/6 55/100/6 56/117/6
f 32/110/2 30/121/2 54/122/2 29/107/2 64/123/2 61/124/2 62/125/2
l 33 34
l 40 39
l 45 46
l 51 52
l 53 54
