# Created by Open3D 
# object name: T-shape
# number of vertices: 170
# number of triangles: 120
mtllib T-shape.mtl
v 0.07 0.075 0.025
vn 0 6.12323e-17 1
v 0.07 0.05 0.025
vn 0 6.12323e-17 1
v 0.07 1.53081e-18 0.025
vn 0 6.12323e-17 1
v 0.07 -0.025 0.025
vn 0 6.12323e-17 1
v 0.09 -0.025 0.025
vn 0 6.12323e-17 1
v 0.09 0.075 0.025
vn 0 6.12323e-17 1
v 0.09 0.075 -0.025
vn 1 0 0
v 0.09 0.075 0.025
vn 1 0 0
v 0.09 -0.025 0.025
vn 1 0 0
v 0.09 -0.025 -0.025
vn 1 0 0
v 0.09 -0.025 -0.025
vn 0 -1 6.12323e-17
v 0.09 -0.025 0.025
vn 0 -1 6.12323e-17
v 0.07 -0.025 0.025
vn 0 -1 6.12323e-17
v 0.07 -0.025 -0.025
vn 0 -1 6.12323e-17
v 0.07 -0.025 -0.025
vn 0 -6.12323e-17 -1
v 0.07 -1.53081e-18 -0.025
vn 0 -6.12323e-17 -1
v 0.07 0.05 -0.025
vn 0 -6.12323e-17 -1
v 0.07 0.075 -0.025
vn 0 -6.12323e-17 -1
v 0.09 0.075 -0.025
vn 0 -6.12323e-17 -1
v 0.09 -0.025 -0.025
vn 0 -6.12323e-17 -1
v 0.07 0.075 -0.025
vn 0 1 -6.12323e-17
v 0.07 0.075 0.025
vn 0 1 -6.12323e-17
v 0.09 0.075 0.025
vn 0 1 -6.12323e-17
v 0.09 0.075 -0.025
vn 0 1 -6.12323e-17
v 0.07 -0.025 -0.025
vn -1 0 0
v 0.07 -0.025 0.025
vn -1 0 0
v 0.07 1.53081e-18 0.025
vn -1 0 0
v 0.07 0.05 0.025
vn -1 0 0
v 0.07 0.05 -0.0125
vn -1 0 0
v 0.07 0.05 -0.025
vn -1 0 0
v 0.07 -1.53081e-18 -0.025
vn -1 0 0
v 0.05 -0.1 0.025
vn 0 6.12323e-17 1
v 0.025 -0.1 0.025
vn 0 6.12323e-17 1
v -0.025 -0.1 0.025
vn 0 6.12323e-17 1
v -0.05 -0.1 0.025
vn 0 6.12323e-17 1
v -0.05 -0.12 0.025
vn 0 6.12323e-17 1
v 0.05 -0.12 0.025
vn 0 6.12323e-17 1
v 0.05 -0.12 -0.025
vn 0 -1 6.12323e-17
v 0.05 -0.12 0.025
vn 0 -1 6.12323e-17
v -0.05 -0.12 0.025
vn 0 -1 6.12323e-17
v -0.05 -0.12 -0.025
vn 0 -1 6.12323e-17
v -0.05 -0.12 -0.025
vn -1 0 0
v -0.05 -0.12 0.025
vn -1 0 0
v -0.05 -0.1 0.025
vn -1 0 0
v -0.05 -0.1 -0.025
vn -1 0 0
v -0.05 -0.1 -0.025
vn 0 -6.12323e-17 -1
v -0.025 -0.1 -0.025
vn 0 -6.12323e-17 -1
v 0.025 -0.1 -0.025
vn 0 -6.12323e-17 -1
v 0.05 -0.1 -0.025
vn 0 -6.12323e-17 -1
v 0.05 -0.12 -0.025
vn 0 -6.12323e-17 -1
v -0.05 -0.12 -0.025
vn 0 -6.12323e-17 -1
v 0.05 -0.1 -0.025
vn 1 0 0
v 0.05 -0.1 0.025
vn 1 0 0
v 0.05 -0.12 0.025
vn 1 0 0
v 0.05 -0.12 -0.025
vn 1 0 0
v -0.05 -0.1 -0.025
vn 0 1 -6.12323e-17
v -0.05 -0.1 0.025
vn 0 1 -6.12323e-17
v -0.025 -0.1 0.025
vn 0 1 -6.12323e-17
v 0.025 -0.1 0.025
vn 0 1 -6.12323e-17
v 0.025 -0.1 -0.0125
vn 0 1 -6.12323e-17
v 0.025 -0.1 -0.025
vn 0 1 -6.12323e-17
v -0.025 -0.1 -0.025
vn 0 1 -6.12323e-17
v -0.025 1.53081e-18 0.025
vn 0 6.12323e-17 1
v -0.025 -0.1 0.025
vn 0 6.12323e-17 1
v 0.025 -0.1 0.025
vn 0 6.12323e-17 1
v 0.025 1.53081e-18 0.025
vn 0 6.12323e-17 1
v 0.025 -1.53081e-18 -0.025
vn 1 0 0
v 0.025 5.46744e-19 0.008929
vn 1 0 0
v 0.025 1.53081e-18 0.025
vn 1 0 0
v 0.025 -0.1 0.025
vn 1 0 0
v 0.025 -0.1 -0.0125
vn 1 0 0
v 0.025 -0.1 -0.025
vn 1 0 0
v 0.025 -0.1 -0.025
vn 0 -1 6.12323e-17
v 0.025 -0.1 -0.0125
vn 0 -1 6.12323e-17
v 0.025 -0.1 0.025
vn 0 -1 6.12323e-17
v -0.025 -0.1 0.025
vn 0 -1 6.12323e-17
v -0.025 -0.1 0.0125
vn 0 -1 6.12323e-17
v -0.025 -0.1 -0.025
vn 0 -1 6.12323e-17
v -0.025 -0.1 -0.025
vn 0 -6.12323e-17 -1
v -0.025 -1.53081e-18 -0.025
vn 0 -6.12323e-17 -1
v 0.025 -1.53081e-18 -0.025
vn 0 -6.12323e-17 -1
v 0.025 -0.1 -0.025
vn 0 -6.12323e-17 -1
v -0.025 -1.53081e-18 -0.025
vn 0 1 -6.12323e-17
v -0.025 -5.46744e-19 -0.008929
vn 0 1 -6.12323e-17
v -0.025 1.53081e-18 0.025
vn 0 1 -6.12323e-17
v 0.025 1.53081e-18 0.025
vn 0 1 -6.12323e-17
v 0.025 5.46744e-19 0.008929
vn 0 1 -6.12323e-17
v 0.025 -1.53081e-18 -0.025
vn 0 1 -6.12323e-17
v -0.025 -0.1 -0.025
vn -1 0 0
v -0.025 -0.1 0.0125
vn -1 0 0
v -0.025 -0.1 0.025
vn -1 0 0
v -0.025 1.53081e-18 0.025
vn -1 0 0
v -0.025 -5.46744e-19 -0.008929
vn -1 0 0
v -0.025 -1.53081e-18 -0.025
vn -1 0 0
v 0.07 0.05 0.025
vn 0 6.12323e-17 1
v -0.07 0.05 0.025
vn 0 6.12323e-17 1
v -0.07 1.53081e-18 0.025
vn 0 6.12323e-17 1
v -0.025 1.53081e-18 0.025
vn 0 6.12323e-17 1
v 0.025 1.53081e-18 0.025
vn 0 6.12323e-17 1
v 0.07 1.53081e-18 0.025
vn 0 6.12323e-17 1
v 0.07 -1.53081e-18 -0.025
vn 0 -1 6.12323e-17
v 0.07 7.65404e-19 0.0125
vn 0 -1 6.12323e-17
v 0.07 1.53081e-18 0.025
vn 0 -1 6.12323e-17
v 0.025 1.53081e-18 0.025
vn 0 -1 6.12323e-17
v -0.025 1.53081e-18 0.025
vn 0 -1 6.12323e-17
v -0.025 -5.46744e-19 -0.008929
vn 0 -1 6.12323e-17
v -0.025 -1.53081e-18 -0.025
vn 0 -1 6.12323e-17
v 0.025 -1.53081e-18 -0.025
vn 0 -1 6.12323e-17
v -0.07 0.05 -0.025
vn 0 -6.12323e-17 -1
v 0.07 0.05 -0.025
vn 0 -6.12323e-17 -1
v 0.07 -1.53081e-18 -0.025
vn 0 -6.12323e-17 -1
v 0.025 -1.53081e-18 -0.025
vn 0 -6.12323e-17 -1
v -0.025 -1.53081e-18 -0.025
vn 0 -6.12323e-17 -1
v -0.07 -1.53081e-18 -0.025
vn 0 -6.12323e-17 -1
v 0.07 0.05 -0.025
vn 1 0 0
v 0.07 0.05 -0.0125
vn 1 0 0
v 0.07 0.05 0.025
vn 1 0 0
v 0.07 1.53081e-18 0.025
vn 1 0 0
v 0.07 7.65404e-19 0.0125
vn 1 0 0
v 0.07 -1.53081e-18 -0.025
vn 1 0 0
v -0.07 0.05 -0.025
vn 0 1 -6.12323e-17
v -0.07 0.05 0.0125
vn 0 1 -6.12323e-17
v -0.07 0.05 0.025
vn 0 1 -6.12323e-17
v 0.07 0.05 0.025
vn 0 1 -6.12323e-17
v 0.07 0.05 -0.0125
vn 0 1 -6.12323e-17
v 0.07 0.05 -0.025
vn 0 1 -6.12323e-17
v 0.025 5.46744e-19 0.008929
vn 0 -1 6.12323e-17
v -0.07 1.53081e-18 0.025
vn 0 -1 6.12323e-17
v -0.07 -7.65404e-19 -0.0125
vn 0 -1 6.12323e-17
v -0.07 -1.53081e-18 -0.025
vn 0 -1 6.12323e-17
v -0.025 -0.1 0.0125
vn 0 1 -6.12323e-17
v 0.05 -0.1 0.025
vn 0 1 -6.12323e-17
v 0.05 -0.1 -0.025
vn 0 1 -6.12323e-17
v 0.07 7.65404e-19 0.0125
vn -1 0 0
v 0.07 0.075 0.025
vn -1 0 0
v 0.07 0.075 -0.025
vn -1 0 0
v -0.09 0.075 0.025
vn 0 6.12323e-17 1
v -0.09 -0.025 0.025
vn 0 6.12323e-17 1
v -0.07 -0.025 0.025
vn 0 6.12323e-17 1
v -0.07 1.53081e-18 0.025
vn 0 6.12323e-17 1
v -0.07 0.05 0.025
vn 0 6.12323e-17 1
v -0.07 0.075 0.025
vn 0 6.12323e-17 1
v -0.07 0.075 -0.025
vn 1 0 0
v -0.07 0.075 0.025
vn 1 0 0
v -0.07 0.05 0.025
vn 1 0 0
v -0.07 1.53081e-18 0.025
vn 1 0 0
v -0.07 -7.65404e-19 -0.0125
vn 1 0 0
v -0.07 -1.53081e-18 -0.025
vn 1 0 0
v -0.07 0.05 -0.025
vn 1 0 0
v -0.07 -0.025 -0.025
vn 0 -1 6.12323e-17
v -0.07 -0.025 0.025
vn 0 -1 6.12323e-17
v -0.09 -0.025 0.025
vn 0 -1 6.12323e-17
v -0.09 -0.025 -0.025
vn 0 -1 6.12323e-17
v -0.09 -0.025 -0.025
vn 0 -6.12323e-17 -1
v -0.09 0.075 -0.025
vn 0 -6.12323e-17 -1
v -0.07 0.075 -0.025
vn 0 -6.12323e-17 -1
v -0.07 0.05 -0.025
vn 0 -6.12323e-17 -1
v -0.07 -1.53081e-18 -0.025
vn 0 -6.12323e-17 -1
v -0.07 -0.025 -0.025
vn 0 -6.12323e-17 -1
v -0.09 0.075 -0.025
vn 0 1 -6.12323e-17
v -0.09 0.075 0.025
vn 0 1 -6.12323e-17
v -0.07 0.075 0.025
vn 0 1 -6.12323e-17
v -0.07 0.075 -0.025
vn 0 1 -6.12323e-17
v -0.09 -0.025 -0.025
vn -1 0 0
v -0.09 -0.025 0.025
vn -1 0 0
v -0.09 0.075 0.025
vn -1 0 0
v -0.09 0.075 -0.025
vn -1 0 0
v -0.07 0.05 0.0125
vn 1 0 0
v -0.07 -0.025 0.025
vn 1 0 0
v -0.07 -0.025 -0.025
vn 1 0 0
vt 0.625 0.5
vt 0.6875 0.5
vt 0.8125 0.5
vt 0.625 0.5
vt 0.8125 0.5
vt 0.875 0.5
vt 0.625 0.5
vt 0.875 0.5
vt 0.875 0.75
vt 0.625 0.5
vt 0.875 0.75
vt 0.625 0.75
vt 0.375 0.75
vt 0.625 0.75
vt 0.625 1
vt 0.625 1
vt 0.375 1
vt 0.375 0.75
vt 0.375 0
vt 0.625 0
vt 0.625 0.25
vt 0.625 0.25
vt 0.375 0.25
vt 0.375 0
vt 0.125 0.5
vt 0.1875 0.5
vt 0.3125 0.5
vt 0.125 0.5
vt 0.3125 0.5
vt 0.375 0.5
vt 0.125 0.5
vt 0.375 0.5
vt 0.375 0.75
vt 0.125 0.5
vt 0.375 0.75
vt 0.125 0.75
vt 0.375 0.5
vt 0.625 0.5
vt 0.625 0.75
vt 0.625 0.75
vt 0.375 0.75
vt 0.375 0.5
vt 0.375 0.25
vt 0.625 0.25
vt 0.625 0.3125
vt 0.375 0.25
vt 0.625 0.3125
vt 0.625 0.4375
vt 0.375 0.25
vt 0.625 0.4375
vt 0.4375 0.4375
vt 0.375 0.25
vt 0.4375 0.4375
vt 0.375 0.4375
vt 0.375 0.25
vt 0.375 0.4375
vt 0.375 0.3125
vt 0.625 0.5
vt 0.6875 0.5
vt 0.8125 0.5
vt 0.625 0.5
vt 0.8125 0.5
vt 0.875 0.5
vt 0.625 0.5
vt 0.875 0.5
vt 0.875 0.75
vt 0.625 0.5
vt 0.875 0.75
vt 0.625 0.75
vt 0.375 0.75
vt 0.625 0.75
vt 0.625 1
vt 0.625 1
vt 0.375 1
vt 0.375 0.75
vt 0.375 0
vt 0.625 0
vt 0.625 0.25
vt 0.625 0.25
vt 0.375 0.25
vt 0.375 0
vt 0.125 0.5
vt 0.1875 0.5
vt 0.3125 0.5
vt 0.125 0.5
vt 0.3125 0.5
vt 0.375 0.5
vt 0.125 0.5
vt 0.375 0.5
vt 0.375 0.75
vt 0.125 0.5
vt 0.375 0.75
vt 0.125 0.75
vt 0.375 0.5
vt 0.625 0.5
vt 0.625 0.75
vt 0.625 0.75
vt 0.375 0.75
vt 0.375 0.5
vt 0.375 0.25
vt 0.625 0.25
vt 0.625 0.3125
vt 0.375 0.25
vt 0.625 0.3125
vt 0.625 0.4375
vt 0.375 0.25
vt 0.625 0.4375
vt 0.4375 0.4375
vt 0.375 0.25
vt 0.4375 0.4375
vt 0.375 0.4375
vt 0.375 0.25
vt 0.375 0.4375
vt 0.375 0.3125
vt 0.625 0.5
vt 0.875 0.5
vt 0.875 0.75
vt 0.875 0.75
vt 0.625 0.75
vt 0.625 0.5
vt 0.375 0.75
vt 0.544643 0.75
vt 0.625 0.75
vt 0.375 0.75
vt 0.625 0.75
vt 0.625 1
vt 0.375 0.75
vt 0.625 1
vt 0.4375 1
vt 0.375 0.75
vt 0.4375 1
vt 0.375 1
vt 0.375 0
vt 0.4375 0
vt 0.625 0
vt 0.375 0
vt 0.625 0
vt 0.625 0.25
vt 0.375 0
vt 0.625 0.25
vt 0.5625 0.25
vt 0.375 0
vt 0.5625 0.25
vt 0.375 0.25
vt 0.125 0.5
vt 0.375 0.5
vt 0.375 0.75
vt 0.375 0.75
vt 0.125 0.75
vt 0.125 0.5
vt 0.375 0.5
vt 0.455357 0.5
vt 0.625 0.5
vt 0.375 0.5
vt 0.625 0.5
vt 0.625 0.75
vt 0.375 0.5
vt 0.625 0.75
vt 0.544643 0.75
vt 0.375 0.5
vt 0.544643 0.75
vt 0.375 0.75
vt 0.375 0.25
vt 0.5625 0.25
vt 0.625 0.25
vt 0.375 0.25
vt 0.625 0.25
vt 0.625 0.5
vt 0.375 0.25
vt 0.625 0.5
vt 0.455357 0.5
vt 0.375 0.25
vt 0.455357 0.5
vt 0.375 0.5
vt 0.625 0.5
vt 0.875 0.5
vt 0.875 0.75
vt 0.625 0.5
vt 0.875 0.75
vt 0.794643 0.75
vt 0.625 0.5
vt 0.794643 0.75
vt 0.705357 0.75
vt 0.625 0.5
vt 0.705357 0.75
vt 0.625 0.75
vt 0.375 0.75
vt 0.5625 0.75
vt 0.625 0.75
vt 0.375 0.75
vt 0.625 0.75
vt 0.625 0.830357
vt 0.375 0.75
vt 0.625 0.830357
vt 0.625 0.919643
vt 0.375 0.75
vt 0.625 0.919643
vt 0.455357 0.919643
vt 0.375 0.75
vt 0.455357 0.919643
vt 0.375 0.919643
vt 0.375 0.75
vt 0.375 0.919643
vt 0.375 0.830357
vt 0.125 0.5
vt 0.375 0.5
vt 0.375 0.75
vt 0.125 0.5
vt 0.375 0.75
vt 0.294643 0.75
vt 0.125 0.5
vt 0.294643 0.75
vt 0.205357 0.75
vt 0.125 0.5
vt 0.205357 0.75
vt 0.125 0.75
vt 0.375 0.5
vt 0.4375 0.5
vt 0.625 0.5
vt 0.375 0.5
vt 0.625 0.5
vt 0.625 0.75
vt 0.375 0.5
vt 0.625 0.75
vt 0.5625 0.75
vt 0.375 0.5
vt 0.5625 0.75
vt 0.375 0.75
vt 0.375 0.25
vt 0.5625 0.25
vt 0.625 0.25
vt 0.375 0.25
vt 0.625 0.25
vt 0.625 0.5
vt 0.375 0.25
vt 0.625 0.5
vt 0.4375 0.5
vt 0.375 0.25
vt 0.4375 0.5
vt 0.375 0.5
vt 0.375 0.919643
vt 0.375 0.830357
vt 0.544643 0.830357
vt 0.375 0.919643
vt 0.544643 0.830357
vt 0.625 0.830357
vt 0.375 0.919643
vt 0.625 0.830357
vt 0.625 0.919643
vt 0.375 0.919643
vt 0.625 0.919643
vt 0.625 1
vt 0.375 0.919643
vt 0.625 1
vt 0.4375 1
vt 0.375 0.919643
vt 0.4375 1
vt 0.375 1
vt 0.375 0.4375
vt 0.375 0.3125
vt 0.5625 0.3125
vt 0.375 0.4375
vt 0.5625 0.3125
vt 0.625 0.3125
vt 0.375 0.4375
vt 0.625 0.3125
vt 0.625 0.4375
vt 0.375 0.4375
vt 0.625 0.4375
vt 0.625 0.5
vt 0.375 0.4375
vt 0.625 0.5
vt 0.375 0.5
vt 0.375 0.4375
vt 0.375 0.3125
vt 0.5625 0.3125
vt 0.375 0.4375
vt 0.5625 0.3125
vt 0.625 0.3125
vt 0.375 0.4375
vt 0.625 0.3125
vt 0.625 0.4375
vt 0.375 0.4375
vt 0.625 0.4375
vt 0.625 0.5
vt 0.375 0.4375
vt 0.625 0.5
vt 0.375 0.5
vt 0.625 0.5
vt 0.875 0.5
vt 0.875 0.75
vt 0.625 0.5
vt 0.875 0.75
vt 0.8125 0.75
vt 0.625 0.5
vt 0.8125 0.75
vt 0.6875 0.75
vt 0.625 0.5
vt 0.6875 0.75
vt 0.625 0.75
vt 0.375 0.75
vt 0.625 0.75
vt 0.625 0.8125
vt 0.375 0.75
vt 0.625 0.8125
vt 0.625 0.9375
vt 0.375 0.75
vt 0.625 0.9375
vt 0.4375 0.9375
vt 0.375 0.75
vt 0.4375 0.9375
vt 0.375 0.9375
vt 0.375 0.75
vt 0.375 0.9375
vt 0.375 0.8125
vt 0.375 0
vt 0.625 0
vt 0.625 0.25
vt 0.625 0.25
vt 0.375 0.25
vt 0.375 0
vt 0.125 0.5
vt 0.375 0.5
vt 0.375 0.75
vt 0.125 0.5
vt 0.375 0.75
vt 0.3125 0.75
vt 0.125 0.5
vt 0.3125 0.75
vt 0.1875 0.75
vt 0.125 0.5
vt 0.1875 0.75
vt 0.125 0.75
vt 0.375 0.5
vt 0.625 0.5
vt 0.625 0.75
vt 0.625 0.75
vt 0.375 0.75
vt 0.375 0.5
vt 0.375 0.25
vt 0.625 0.25
vt 0.625 0.5
vt 0.625 0.5
vt 0.375 0.5
vt 0.375 0.25
vt 0.375 0.9375
vt 0.375 0.8125
vt 0.5625 0.8125
vt 0.375 0.9375
vt 0.5625 0.8125
vt 0.625 0.8125
vt 0.375 0.9375
vt 0.625 0.8125
vt 0.625 0.9375
vt 0.375 0.9375
vt 0.625 0.9375
vt 0.625 1
vt 0.375 0.9375
vt 0.625 1
vt 0.375 1
usemtl T-shape_1
f 1/1/1 2/2/2 3/3/3
f 1/4/1 3/5/3 4/6/4
f 1/7/1 4/8/4 5/9/5
f 1/10/1 5/11/5 6/12/6
f 7/13/7 8/14/8 9/15/9
f 9/16/9 10/17/10 7/18/7
f 11/19/11 12/20/12 13/21/13
f 13/22/13 14/23/14 11/24/11
f 15/25/15 16/26/16 17/27/17
f 15/28/15 17/29/17 18/30/18
f 15/31/15 18/32/18 19/33/19
f 15/34/15 19/35/19 20/36/20
f 21/37/21 22/38/22 23/39/23
f 23/40/23 24/41/24 21/42/21
f 25/43/25 26/44/26 27/45/27
f 25/46/25 27/47/27 28/48/28
f 25/49/25 28/50/28 29/51/29
f 25/52/25 29/53/29 30/54/30
f 25/55/25 30/56/30 31/57/31
f 32/58/32 33/59/33 34/60/34
f 32/61/32 34/62/34 35/63/35
f 32/64/32 35/65/35 36/66/36
f 32/67/32 36/68/36 37/69/37
f 38/70/38 39/71/39 40/72/40
f 40/73/40 41/74/41 38/75/38
f 42/76/42 43/77/43 44/78/44
f 44/79/44 45/80/45 42/81/42
f 46/82/46 47/83/47 48/84/48
f 46/85/46 48/86/48 49/87/49
f 46/88/46 49/89/49 50/90/50
f 46/91/46 50/92/50 51/93/51
f 52/94/52 53/95/53 54/96/54
f 54/97/54 55/98/55 52/99/52
f 56/100/56 57/101/57 58/102/58
f 56/103/56 58/104/58 59/105/59
f 56/106/56 59/107/59 60/108/60
f 56/109/56 60/110/60 61/111/61
f 56/112/56 61/113/61 62/114/62
f 63/115/63 64/116/64 65/117/65
f 65/118/65 66/119/66 63/120/63
f 67/121/67 68/122/68 69/123/69
f 67/124/67 69/125/69 70/126/70
f 67/127/67 70/128/70 71/129/71
f 67/130/67 71/131/71 72/132/72
f 73/133/73 74/134/74 75/135/75
f 73/136/73 75/137/75 76/138/76
f 73/139/73 76/140/76 77/141/77
f 73/142/73 77/143/77 78/144/78
f 79/145/79 80/146/80 81/147/81
f 81/148/81 82/149/82 79/150/79
f 83/151/83 84/152/84 85/153/85
f 83/154/83 85/155/85 86/156/86
f 83/157/83 86/158/86 87/159/87
f 83/160/83 87/161/87 88/162/88
f 89/163/89 90/164/90 91/165/91
f 89/166/89 91/167/91 92/168/92
f 89/169/89 92/170/92 93/171/93
f 89/172/89 93/173/93 94/174/94
f 95/175/95 96/176/96 97/177/97
f 95/178/95 97/179/97 98/180/98
f 95/181/95 98/182/98 99/183/99
f 95/184/95 99/185/99 100/186/100
f 101/187/101 102/188/102 103/189/103
f 101/190/101 103/191/103 104/192/104
f 101/193/101 104/194/104 105/195/105
f 101/196/101 105/197/105 106/198/106
f 101/199/101 106/200/106 107/201/107
f 101/202/101 107/203/107 108/204/108
f 109/205/109 110/206/110 111/207/111
f 109/208/109 111/209/111 112/210/112
f 109/211/109 112/212/112 113/213/113
f 109/214/109 113/215/113 114/216/114
f 115/217/115 116/218/116 117/219/117
f 115/220/115 117/221/117 118/222/118
f 115/223/115 118/224/118 119/225/119
f 115/226/115 119/227/119 120/228/120
f 121/229/121 122/230/122 123/231/123
f 121/232/121 123/233/123 124/234/124
f 121/235/121 124/236/124 125/237/125
f 121/238/121 125/239/125 126/240/126
f 107/241/107 108/242/108 127/243/127
f 107/244/107 127/245/127 104/246/104
f 107/247/107 104/248/104 105/249/105
f 107/250/107 105/251/105 128/252/128
f 107/253/107 128/254/128 129/255/129
f 107/256/107 129/257/129 130/258/130
f 61/259/61 62/260/62 131/261/131
f 61/262/61 131/263/131 58/264/58
f 61/265/61 58/266/58 59/267/59
f 61/268/61 59/269/59 132/270/132
f 61/271/61 132/272/132 133/273/133
f 30/274/30 31/275/31 134/276/134
f 30/277/30 134/278/134 27/279/27
f 30/280/30 27/281/27 28/282/28
f 30/283/30 28/284/28 135/285/135
f 30/286/30 135/287/135 136/288/136
f 137/289/137 138/290/138 139/291/139
f 137/292/137 139/293/139 140/294/140
f 137/295/137 140/296/140 141/297/141
f 137/298/137 141/299/141 142/300/142
f 143/301/143 144/302/144 145/303/145
f 143/304/143 145/305/145 146/306/146
f 143/307/143 146/308/146 147/309/147
f 143/310/143 147/311/147 148/312/148
f 143/313/143 148/314/148 149/315/149
f 150/316/150 151/317/151 152/318/152
f 152/319/152 153/320/153 150/321/150
f 154/322/154 155/323/155 156/324/156
f 154/325/154 156/326/156 157/327/157
f 154/328/154 157/329/157 158/330/158
f 154/331/154 158/332/158 159/333/159
f 160/334/160 161/335/161 162/336/162
f 162/337/162 163/338/163 160/339/160
f 164/340/164 165/341/165 166/342/166
f 166/343/166 167/344/167 164/345/164
f 148/346/148 149/347/149 168/348/168
f 148/349/148 168/350/168 145/351/145
f 148/352/148 145/353/145 146/354/146
f 148/355/148 146/356/146 169/357/169
f 148/358/148 169/359/169 170/360/170
