# Blender 4.5.2 LTS
# www.blender.org
mtllib pi.mtl
o Cube
v 0.130000 0.030000 0.220000
v 0.180000 0.030000 -0.030000
v 0.130000 -0.030000 0.220000
v -0.110000 0.030000 0.000000
v 0.050000 0.030000 0.000000
v 0.130000 0.030000 0.280000
v 0.130000 -0.030000 0.280000
v -0.110000 -0.030000 0.000000
v 0.030000 0.030000 0.220000
v -0.050000 0.030000 0.000000
v -0.030000 0.030000 0.220000
v 0.030000 -0.030000 0.220000
v 0.050000 -0.030000 0.000000
v 0.030000 0.030000 0.280000
v 0.030000 -0.030000 0.280000
v -0.050000 -0.030000 0.000000
v 0.110000 0.030000 0.000000
v -0.110000 0.030000 0.240000
v 0.180000 -0.030000 -0.030000
v -0.110000 -0.030000 0.240000
v -0.050000 0.030000 0.240000
v 0.110000 -0.030000 0.000000
v -0.030000 -0.030000 0.220000
v -0.050000 -0.030000 0.240000
v 0.050000 0.030000 0.240000
v 0.180000 0.030000 0.030000
v 0.050000 -0.030000 0.240000
v -0.030000 0.030000 0.280000
v 0.180000 -0.030000 0.030000
v 0.110000 0.030000 0.240000
v 0.110000 -0.030000 0.240000
v -0.030000 -0.030000 0.280000
v -0.180000 0.030000 -0.030000
v -0.130000 0.030000 0.220000
v -0.180000 -0.030000 -0.030000
v -0.130000 -0.030000 0.220000
v -0.180000 0.030000 0.030000
v -0.130000 0.030000 0.280000
v -0.180000 -0.030000 0.030000
v -0.130000 -0.030000 0.280000
v 0.050000 0.030000 0.030000
v 0.110000 0.030000 0.030000
v 0.050000 -0.030000 0.030000
v 0.110000 -0.030000 0.030000
v 0.102500 -0.030000 0.030000
v 0.110000 -0.030000 0.018333
v 0.105600 -0.030000 0.017600
v -0.050000 0.030000 0.030000
v -0.110000 0.030000 0.030000
v -0.110000 -0.030000 0.030000
v -0.050000 -0.030000 0.030000
v -0.050000 0.030000 0.220000
v -0.110000 0.030000 0.220000
v -0.110000 -0.030000 0.220000
v -0.050000 -0.030000 0.220000
v -0.050000 0.030000 0.232000
v -0.050000 -0.030000 0.013043
v -0.050000 -0.030000 0.008333
v -0.110000 0.030000 0.018333
v -0.110000 0.030000 0.020870
v -0.110000 -0.030000 0.232000
v -0.108261 -0.030000 0.233043
v -0.052174 -0.030000 0.008696
v -0.053371 -0.030000 0.013483
v -0.051739 0.030000 0.233043
v -0.104947 0.030000 0.020211
v -0.105600 0.030000 0.017600
v 0.110000 -0.030000 0.220000
v 0.110000 0.030000 0.232000
v 0.110000 0.030000 0.220000
v 0.050000 0.030000 0.220000
v 0.050000 -0.030000 0.220000
v 0.108049 0.030000 0.233171
vn -0.0000 1.0000 -0.0000
vn -0.0000 -0.0000 1.0000
vn -1.0000 -0.0000 -0.0000
vn -0.0000 -1.0000 -0.0000
vn 1.0000 -0.0000 -0.0000
vn -0.0000 -0.0000 -1.0000
vt 0.784722 0.625000
vt 0.784722 0.750000
vt 0.715278 0.750000
vt 0.715278 0.625000
vt 0.673611 0.625000
vt 0.673611 0.750000
vt 0.625000 0.750000
vt 0.625000 0.500000
vt 0.875000 0.500000
vt 0.875000 0.750000
vt 0.826389 0.750000
vt 0.826389 0.711957
vt 0.826389 0.701389
vt 0.826389 0.625000
vt 0.822880 0.709210
vt 0.823333 0.698333
vt 0.625000 1.000000
vt 0.375000 1.000000
vt 0.375000 0.951389
vt 0.625000 0.951389
vt 0.375000 0.909722
vt 0.375000 0.840278
vt 0.625000 0.840278
vt 0.625000 0.909722
vt 0.375000 0.750000
vt 0.625000 0.798611
vt 0.375000 0.798611
vt 0.375000 0.000000
vt 0.625000 0.000000
vt 0.625000 0.250000
vt 0.375000 0.250000
vt 0.375000 0.500000
vt 0.326389 0.750000
vt 0.326389 0.701389
vt 0.326389 0.625000
vt 0.284722 0.625000
vt 0.284722 0.750000
vt 0.215278 0.750000
vt 0.215278 0.679348
vt 0.215278 0.659722
vt 0.215278 0.625000
vt 0.173611 0.625000
vt 0.173611 0.750000
vt 0.125000 0.750000
vt 0.125000 0.500000
vt 0.213768 0.661232
vt 0.212937 0.681180
vt 0.323333 0.698333
vt 0.321181 0.750000
vt 0.675000 0.500000
vt 0.675000 0.550000
vt 0.675000 0.583333
vt 0.825000 0.583333
vt 0.825000 0.500000
vt 0.679348 0.554348
vt 0.325000 0.583333
vt 0.325000 0.500000
vt 0.175000 0.500000
vt 0.175000 0.550000
vt 0.175000 0.583333
vt 0.179348 0.554348
vt 0.625000 0.450000
vt 0.375000 0.450000
vt 0.625000 0.300000
vt 0.375000 0.300000
vt 0.854167 0.750000
vt 0.656250 0.750000
vt 0.656250 0.500000
vt 0.854167 0.500000
vt 0.866667 0.750000
vt 0.867886 0.741870
vt 0.343750 0.500000
vt 0.343750 0.718750
vt 0.343750 0.750000
vt 0.145833 0.750000
vt 0.145833 0.500000
vt 0.854167 0.750000
vt 0.854167 0.500000
vt 0.675000 0.550000
vt 0.675000 0.583333
vt 0.825000 0.583333
vt 0.825000 0.500000
vt 0.675000 0.500000
vt 0.175000 0.500000
vt 0.325000 0.583333
vt 0.325000 0.500000
s 0
usemtl Material
f 10/1/1 48/2/1 41/3/1 5/4/1 17/5/1 42/6/1 26/7/1 2/8/1 33/9/1 37/10/1 49/11/1 60/12/1 59/13/1 4/14/1
f 66/15/1 60/12/1 49/11/1 48/2/1 10/1/1 4/14/1 59/13/1 67/16/1
f 67/16/1 59/13/1 60/12/1 66/15/1
f 42/6/1 17/5/1 5/4/1 41/3/1
f 37/17/2 39/18/2 50/19/2 49/20/2
f 51/21/2 43/22/2 41/23/2 48/24/2
f 29/25/2 26/7/2 42/26/2 44/27/2
f 39/28/3 37/29/3 33/30/3 35/31/3
f 19/32/4 29/25/4 44/33/4 46/34/4 22/35/4 13/36/4 43/37/4 51/38/4 57/39/4 58/40/4 16/41/4 8/42/4 50/43/4 39/44/4 35/45/4
f 57/39/4 51/38/4 50/43/4 8/42/4 16/41/4 58/40/4 63/46/4 64/47/4
f 63/46/4 58/40/4 57/39/4 64/47/4
f 47/48/4 45/49/4 43/37/4 13/36/4 22/35/4 46/34/4
f 45/49/4 47/48/4 46/34/4 44/33/4
f 19/32/5 2/8/5 26/7/5 29/25/5
f 35/31/6 33/30/6 2/8/6 19/32/6
f 28/7/1 11/8/1 52/50/1 56/51/1 21/52/1 18/53/1 53/54/1 34/9/1 38/10/1
f 65/55/1 56/51/1 52/50/1 53/54/1 18/53/1 21/52/1
f 21/52/1 56/51/1 65/55/1
f 32/25/2 28/7/2 38/17/2 40/18/2
f 40/28/3 38/29/3 34/30/3 36/31/3
f 24/56/4 55/57/4 23/32/4 32/25/4 40/44/4 36/45/4 54/58/4 61/59/4 20/60/4
f 62/61/4 61/59/4 54/58/4 55/57/4 24/56/4 20/60/4
f 61/59/4 62/61/4 20/60/4
f 23/32/5 11/8/5 28/7/5 32/25/5
f 52/62/6 11/8/6 23/32/6 55/63/6
f 36/31/6 34/30/6 53/64/6 54/65/6
f 70/66/1 42/67/1 41/68/1 71/69/1
f 30/10/1 69/70/1 73/71/1
f 69/70/1 70/66/1 71/69/1 25/9/1 30/10/1 73/71/1
f 44/18/5 42/7/5 70/7/5 68/18/5
f 43/72/4 45/73/4 44/74/4 68/75/4 72/76/4
f 68/75/4 31/44/4 27/45/4 72/76/4
f 71/30/3 41/30/3 43/32/3 72/32/3
f 52/77/1 48/67/1 49/68/1 53/78/1
f 51/18/5 48/7/5 52/7/5 55/18/5
f 50/72/4 51/74/4 55/75/4 54/76/4
f 50/32/3 54/32/3 53/30/3 49/30/3
f 69/79/1 30/80/1 25/81/1 71/82/1 9/9/1 14/10/1 6/7/1 1/8/1 70/83/1
f 7/25/2 6/7/2 14/17/2 15/18/2
f 15/28/3 14/29/3 9/30/3 12/31/3
f 12/45/4 72/84/4 27/60/4 31/85/4 68/86/4 3/32/4 7/25/4 15/44/4
f 3/32/5 1/8/5 6/7/5 7/25/5
f 70/62/6 1/8/6 3/32/6 68/63/6
f 12/31/6 9/30/6 71/64/6 72/65/6
